<?xml version="1.0" standalone="no"?>
<!DOCTYPE svg PUBLIC "-//W3C//DTD SVG 20010904//EN"
 "http://www.w3.org/TR/2001/REC-SVG-20010904/DTD/svg10.dtd">
<svg version="1.0" xmlns="http://www.w3.org/2000/svg"
 width="1024.000000pt" height="1024.000000pt" viewBox="0 0 1024.000000 1024.000000"
 preserveAspectRatio="xMidYMid meet">

<g transform="translate(0.000000,1024.000000) scale(0.100000,-0.100000)"
fill="#000000" stroke="none">
<path d="M6503 8449 c-122 -23 -203 -107 -203 -211 0 -83 41 -122 185 -179 44
-18 95 -41 113 -51 54 -33 55 -95 2 -123 -63 -32 -138 -11 -189 54 -39 49 -74
54 -115 16 -34 -32 -34 -71 3 -121 36 -50 64 -68 136 -90 71 -20 178 -13 233
15 143 74 164 254 41 353 -20 16 -76 44 -125 63 -124 46 -156 95 -83 125 44
18 112 7 150 -24 34 -29 55 -28 99 3 32 23 35 48 11 88 -39 62 -160 101 -258
82z"/>
<path d="M2774 8436 c-17 -8 -34 -21 -38 -31 -11 -29 -7 -604 5 -626 15 -29
52 -40 88 -28 37 13 53 56 51 136 -1 32 -1 63 -1 69 1 6 32 13 74 17 88 6 132
23 185 71 44 40 72 105 72 165 0 103 -83 209 -181 230 -70 15 -217 13 -255 -3z
m231 -140 c63 -27 76 -103 26 -158 -24 -27 -36 -32 -90 -36 l-61 -4 0 106 0
106 45 0 c25 0 61 -6 80 -14z"/>
<path d="M3987 8430 l-27 -21 0 -313 0 -313 23 -21 c44 -41 107 -19 123 43 3
14 4 98 2 185 -3 88 -4 160 -2 160 1 0 42 -66 90 -147 154 -258 185 -290 258
-259 22 9 40 25 46 41 13 35 13 600 0 625 -5 10 -26 24 -45 30 -30 10 -40 9
-60 -4 -14 -9 -26 -17 -27 -19 -1 -1 -4 -96 -7 -212 l-6 -210 -65 108 c-36 59
-77 127 -92 150 -15 23 -40 65 -57 92 -46 76 -63 94 -96 101 -22 4 -38 0 -58
-16z"/>
<path d="M4747 8443 c-50 -8 -52 -23 -52 -354 0 -382 -14 -353 166 -347 118 3
130 6 192 36 168 83 238 289 158 464 -29 64 -95 134 -154 162 -74 36 -212 54
-310 39z m184 -154 c66 -14 144 -86 155 -143 27 -146 -45 -245 -190 -262 l-56
-7 0 205 c0 113 3 208 7 211 9 10 24 9 84 -4z"/>
<path d="M5603 8439 c-32 -12 -42 -32 -146 -284 -52 -126 -105 -252 -116 -278
-25 -58 -26 -85 -5 -115 16 -24 61 -30 94 -12 21 11 53 62 70 114 l12 37 111
-3 112 -3 33 -66 c42 -85 81 -110 130 -85 44 23 48 52 19 122 -13 33 -63 154
-111 269 -47 116 -95 229 -107 252 -23 46 -60 66 -96 52z m56 -308 c17 -40 31
-79 31 -87 0 -11 -16 -14 -65 -14 l-64 0 13 43 c17 56 48 138 51 135 2 -2 17
-36 34 -77z"/>
<path d="M6922 8427 c-22 -23 -22 -29 -22 -333 0 -170 4 -314 8 -320 13 -20
51 -35 76 -28 46 11 56 42 56 174 l0 120 115 0 115 0 0 -116 c0 -110 8 -149
34 -166 20 -14 64 -8 87 11 24 19 24 20 27 283 4 326 1 363 -38 383 -40 21
-57 19 -85 -10 -24 -23 -25 -31 -25 -135 l0 -111 -112 3 -113 3 -5 113 c-5
104 -7 115 -29 133 -31 25 -63 24 -89 -4z"/>
<path d="M7714 8438 c-63 -20 -127 -80 -164 -152 -34 -68 -35 -71 -35 -190 0
-112 2 -125 27 -177 32 -63 94 -130 147 -156 27 -14 60 -18 131 -18 109 0 153
17 218 84 171 177 109 532 -106 605 -51 18 -169 20 -218 4z m191 -159 c77 -53
107 -215 56 -304 -32 -57 -66 -78 -131 -83 -69 -5 -114 22 -147 88 -44 85 -25
240 35 293 47 42 130 45 187 6z"/>
<path d="M8333 8444 c-45 -11 -47 -21 -51 -321 -5 -317 0 -353 46 -372 34 -14
76 -2 91 28 6 11 11 58 11 105 l0 86 60 0 c111 0 202 46 242 123 18 33 23 59
23 118 0 67 -4 81 -30 125 -23 38 -43 56 -87 77 -50 25 -69 29 -170 32 -62 2
-123 1 -135 -1z m253 -168 c35 -39 33 -96 -5 -138 -24 -27 -36 -32 -90 -36
l-61 -4 0 107 0 107 66 -4 c58 -4 70 -8 90 -32z"/>
<path d="M3478 8423 c-19 -22 -47 -79 -78 -158 -13 -33 -59 -145 -102 -248
-43 -104 -78 -201 -78 -216 0 -36 28 -61 68 -61 37 0 84 51 105 115 l14 40
114 3 115 3 25 -53 c37 -79 65 -108 105 -108 36 0 74 28 74 56 0 8 -23 70 -51
137 -28 67 -84 203 -124 302 -41 99 -82 185 -91 192 -25 19 -78 16 -96 -4z
m62 -238 c0 -8 11 -40 25 -71 36 -82 36 -84 -40 -84 -36 0 -65 2 -65 5 0 9 39
121 51 149 12 26 29 26 29 1z"/>
<path d="M3032 7340 l3 -70 -542 0 c-526 0 -543 -1 -553 -19 -5 -11 -10 -71
-10 -134 0 -95 3 -119 17 -136 l18 -21 2490 0 c1370 0 3069 0 3777 0 1156 0
1288 2 1302 16 24 23 24 279 0 288 -9 3 -258 6 -555 6 l-539 0 0 70 0 70 -190
0 -189 0 -3 -67 -3 -68 -2317 -3 -2318 -3 0 71 0 70 -196 0 -196 0 4 -70z"/>
<path d="M2492 6890 c-125 -33 -198 -74 -288 -164 -130 -131 -194 -283 -194
-461 0 -198 70 -345 219 -459 l60 -46 30 43 c138 202 342 395 546 520 86 52
303 157 325 157 18 0 10 35 -25 109 -48 99 -165 218 -257 261 -128 60 -282 75
-416 40z m176 -510 c3 -9 -2 -11 -17 -7 -27 7 -38 -11 -15 -27 18 -13 12 -36
-9 -36 -14 0 -53 -41 -49 -52 1 -5 -15 -9 -35 -9 -38 -1 -38 -1 -8 -9 l30 -7
-32 -8 c-18 -4 -33 -12 -33 -17 0 -5 -6 -8 -14 -6 -8 2 -15 -1 -15 -5 0 -5 -8
-15 -18 -23 -13 -10 -14 -13 -4 -14 11 0 10 -5 -4 -20 -20 -23 -30 -86 -15
-95 6 -4 10 -12 10 -18 0 -7 -10 4 -23 23 -30 47 -32 177 -3 230 37 71 83 105
159 119 49 8 89 1 95 -19z"/>
<path d="M2535 6270 c3 -5 10 -10 16 -10 5 0 9 5 9 10 0 6 -7 10 -16 10 -8 0
-12 -4 -9 -10z"/>
<path d="M5105 6900 c-189 -34 -349 -149 -425 -305 -39 -80 -47 -115 -27 -115
62 0 364 -169 492 -275 43 -36 83 -62 89 -58 6 3 8 2 3 -2 -4 -5 30 -47 75
-94 46 -48 108 -119 138 -160 30 -40 65 -85 76 -99 l22 -26 41 27 c61 41 119
95 152 144 17 24 34 43 38 43 5 0 14 -14 21 -31 20 -47 103 -126 157 -151 36
-16 69 -21 133 -22 74 -1 92 3 141 27 80 39 134 90 166 155 26 53 28 68 33
215 l5 157 -297 0 -297 0 -11 58 c-45 233 -226 432 -449 494 -79 22 -207 30
-276 18z m240 -529 c22 -15 55 -49 74 -76 32 -48 33 -53 29 -130 -4 -74 -22
-135 -35 -121 -3 3 0 12 7 21 7 9 8 15 2 15 -5 0 -8 9 -5 19 6 25 -24 71 -42
64 -9 -3 -16 4 -20 20 -4 14 -13 28 -21 31 -8 3 -14 13 -14 21 0 9 -4 13 -10
10 -5 -3 -10 1 -10 9 0 9 -6 16 -13 16 -20 0 -60 47 -62 72 -1 12 -12 29 -24
39 -19 16 -20 18 -4 22 36 10 109 -6 148 -32z"/>
<path d="M5360 6190 c0 -5 5 -10 10 -10 6 0 10 5 10 10 0 6 -4 10 -10 10 -5 0
-10 -4 -10 -10z"/>
<path d="M665 6395 c-259 -57 -466 -251 -543 -509 -30 -102 -34 -249 -9 -346
40 -153 145 -312 260 -394 71 -51 176 -103 225 -112 l32 -6 0 -63 c0 -34 3
-77 6 -94 l7 -31 81 0 c56 0 76 -3 66 -10 -8 -5 -33 -10 -55 -10 -53 0 -116
-11 -111 -19 2 -3 0 -30 -6 -59 -7 -41 -6 -57 4 -69 11 -13 13 -234 13 -1169
0 -634 2 -1154 5 -1157 3 -2 71 -7 153 -10 l147 -6 3 1172 c1 645 0 1251 -2
1348 l-3 176 33 7 c59 12 192 83 257 138 268 227 321 618 125 927 -142 225
-436 352 -688 296z m240 -156 c93 -17 269 -113 185 -101 -18 2 -40 -2 -55 -12
-26 -17 -33 -42 -15 -48 6 -2 42 -34 79 -72 l69 -68 17 32 c9 18 15 46 13 61
-4 28 -4 28 14 12 31 -28 87 -154 104 -233 48 -231 -68 -480 -272 -583 -73
-37 -123 -49 -235 -54 -102 -5 -126 -3 -190 17 -224 68 -364 247 -377 481 -7
134 45 287 133 393 l24 30 -11 -42 c-9 -35 -7 -46 8 -73 11 -18 23 -30 28 -28
6 2 42 36 82 76 72 71 73 71 52 90 -13 12 -34 18 -64 17 -24 0 -41 2 -39 7 10
15 132 73 190 90 70 20 176 24 260 8z"/>
<path d="M569 5900 c-72 -21 -139 -106 -142 -179 -4 -119 153 -126 241 -12 26
35 32 52 32 93 0 41 -5 54 -29 79 -30 29 -54 34 -102 19z m84 -96 c3 -4 2 -15
-4 -26 -8 -15 -13 -17 -25 -7 -20 16 -17 39 4 39 10 0 22 -3 25 -6z"/>
<path d="M922 5892 c-13 -10 -27 -36 -33 -61 -8 -36 -6 -50 11 -85 56 -117
186 -157 244 -75 21 30 20 64 -3 114 -46 100 -158 154 -219 107z m48 -93 c0
-4 -9 -13 -20 -19 -17 -9 -20 -8 -20 8 0 10 3 21 6 25 8 8 34 -3 34 -14z"/>
<path d="M765 5752 c-34 -7 -37 -18 -11 -36 15 -9 26 -22 26 -30 0 -36 77 -61
88 -28 3 9 -3 11 -22 6 -15 -4 -26 -2 -26 4 0 6 -12 24 -26 41 -21 25 -23 31
-9 31 9 0 19 -9 22 -20 6 -22 11 -24 32 -11 35 22 -19 53 -74 43z"/>
<path d="M734 5655 c22 -16 56 -20 56 -6 0 9 -34 21 -60 21 -11 -1 -10 -4 4
-15z"/>
<path d="M7112 6173 c3 -152 4 -160 32 -216 62 -122 165 -187 297 -187 99 0
180 32 239 97 84 92 95 124 98 306 l3 157 -336 0 -336 0 3 -157z"/>
<path d="M8457 6171 c1 -148 3 -164 26 -213 33 -69 83 -120 154 -155 50 -24
70 -28 143 -28 74 0 92 4 145 30 70 36 120 84 156 151 36 68 49 136 49 264 l0
110 -337 0 -338 0 2 -159z"/>
<path d="M2913 5612 c-89 -27 -165 -76 -253 -164 -131 -131 -226 -289 -265
-438 -22 -84 -17 -207 12 -271 60 -134 249 -218 464 -206 116 7 187 30 268 87
138 97 217 276 228 515 14 308 -97 478 -320 491 -51 3 -90 -1 -134 -14z m61
-618 c22 -22 20 -34 -11 -66 -31 -33 -53 -35 -77 -9 -43 47 43 121 88 75z"/>
<path d="M4780 5616 c-168 -45 -250 -211 -237 -481 10 -205 63 -342 177 -456
107 -107 216 -145 390 -136 266 14 410 140 410 359 0 97 -14 147 -76 273 -158
324 -430 505 -664 441z m72 -623 c24 -21 23 -42 -4 -70 -26 -28 -59 -30 -82
-4 -16 18 -16 22 -2 49 23 44 56 54 88 25z"/>
<path d="M5820 5251 c0 -2 19 -59 41 -128 l42 -125 447 4 447 3 6 -275 c12
-497 9 -1256 -5 -1258 -77 -9 -114 -32 -53 -32 29 0 36 -3 32 -15 -4 -8 0 -27
8 -42 37 -71 2 -122 -78 -115 -14 2 -17 7 -12 22 4 14 2 20 -7 18 -9 -2 -12 8
-11 35 2 25 -3 45 -14 55 -15 15 -16 9 -11 -84 3 -55 11 -113 19 -129 17 -35
67 -54 103 -37 22 10 24 8 30 -19 3 -16 6 -193 6 -393 l1 -363 44 5 c25 2 45
2 45 -1 0 -6 28 -170 60 -352 27 -154 60 -348 60 -357 0 -5 16 -8 35 -8 l35 0
0 1743 c0 1631 -1 1744 -17 1767 -24 35 -53 58 -88 69 -28 10 -1165 21 -1165
12z"/>
<path d="M7870 5231 c-248 -5 -300 -9 -325 -22 -44 -24 -63 -49 -73 -95 -12
-54 -3 -2423 9 -2446 5 -10 23 -25 40 -33 27 -14 130 -16 906 -16 657 1 879 4
890 13 21 17 43 64 43 91 0 14 -7 42 -16 63 -15 36 -16 142 -13 1194 l4 1155
-24 34 c-48 67 -38 66 -621 66 -289 1 -658 -1 -820 -4z m1310 -828 c1 -351 2
-855 3 -1121 l2 -482 -185 -1 c-401 -2 -1365 3 -1370 8 -9 9 -12 1095 -5 1671
l7 562 774 0 774 0 0 -637z"/>
<path d="M8355 4942 c-49 -10 -119 -78 -183 -175 -35 -54 -70 -100 -76 -103
-6 -2 -48 -10 -94 -18 -90 -16 -134 -36 -165 -78 -17 -22 -21 -46 -24 -135 -2
-59 -1 -105 2 -101 3 3 8 46 10 95 6 134 20 157 110 187 75 24 141 31 150 16
5 -8 1 -19 -11 -28 -18 -14 -18 -14 -1 -8 10 3 23 6 28 6 6 0 8 4 5 9 -8 13
70 44 98 39 15 -3 26 -2 26 1 0 3 15 7 33 8 17 1 102 11 187 22 109 14 156 17
161 10 4 -8 8 -7 11 2 4 11 9 12 26 2 11 -7 22 -8 24 -3 5 15 119 28 171 20
35 -5 45 -4 37 4 -6 6 -56 12 -117 13 -58 1 -109 5 -112 10 -4 4 -23 29 -44
54 -40 51 -155 134 -202 147 -16 5 -39 6 -50 4z m92 -58 c34 -20 88 -63 120
-96 68 -68 66 -73 -41 -83 -39 -4 -140 -15 -223 -24 -84 -9 -153 -13 -153 -8
0 4 22 40 49 80 64 93 140 166 176 167 6 0 38 -16 72 -36z"/>
<path d="M8745 4684 c-26 -12 -27 -14 -5 -9 14 2 43 5 65 6 35 1 37 2 15 9
-35 11 -41 11 -75 -6z"/>
<path d="M8905 4690 c3 -5 8 -10 11 -10 2 0 4 5 4 10 0 6 -5 10 -11 10 -5 0
-7 -4 -4 -10z"/>
<path d="M8471 4671 c-11 -7 -9 -10 8 -16 13 -4 25 -4 28 -1 4 3 -2 6 -13 7
-18 0 -18 1 1 9 13 6 15 9 5 9 -8 0 -21 -3 -29 -8z"/>
<path d="M8385 4660 c-7 -12 2 -12 30 0 19 8 19 9 -2 9 -12 1 -25 -3 -28 -9z"/>
<path d="M8538 4663 c7 -3 16 -2 19 1 4 3 -2 6 -13 5 -11 0 -14 -3 -6 -6z"/>
<path d="M8620 4666 c0 -2 7 -7 16 -10 8 -3 12 -2 9 4 -6 10 -25 14 -25 6z"/>
<path d="M8770 4660 c0 -5 7 -10 15 -10 8 0 15 5 15 10 0 6 -7 10 -15 10 -8 0
-15 -4 -15 -10z"/>
<path d="M8630 4631 c8 -5 32 -12 53 -16 30 -6 37 -4 37 9 0 13 -11 16 -52 16
-35 -1 -48 -4 -38 -9z"/>
<path d="M8920 4631 c0 -5 9 -11 20 -14 13 -3 20 0 20 9 0 8 -9 14 -20 14 -11
0 -20 -4 -20 -9z"/>
<path d="M8133 4615 c-8 -8 -9 -16 -3 -20 5 -3 14 4 20 15 12 23 1 26 -17 5z"/>
<path d="M8005 4605 c-16 -7 -23 -14 -15 -15 8 -1 -3 -7 -25 -15 -53 -17 -23
-18 40 0 43 12 46 14 20 15 l-30 2 35 13 c19 7 28 14 20 14 -8 0 -28 -6 -45
-14z"/>
<path d="M8400 4609 c0 -5 5 -7 10 -4 6 3 10 8 10 11 0 2 -4 4 -10 4 -5 0 -10
-5 -10 -11z"/>
<path d="M8615 4610 c-3 -5 1 -10 9 -10 9 0 16 5 16 10 0 6 -4 10 -9 10 -6 0
-13 -4 -16 -10z"/>
<path d="M8459 4598 c-17 -14 -49 -63 -49 -74 0 -4 9 3 20 16 13 15 20 18 20
9 0 -8 7 -1 15 15 19 35 16 52 -6 34z"/>
<path d="M8961 4584 c0 -11 3 -14 6 -6 3 7 2 16 -1 19 -3 4 -6 -2 -5 -13z"/>
<path d="M8317 4570 c-3 -11 -2 -18 2 -15 4 2 8 -2 8 -10 0 -11 -5 -12 -20 -3
-24 12 -127 20 -127 9 0 -5 24 -8 53 -8 29 0 62 -5 72 -10 27 -14 85 -5 85 14
0 8 4 11 10 8 6 -3 7 1 4 9 -3 9 -11 16 -18 17 -6 0 -23 3 -37 5 -20 3 -28 0
-32 -16z m63 -22 c0 -4 -9 -8 -20 -8 -11 0 -20 4 -20 8 0 4 9 8 20 8 11 0 20
-4 20 -8z"/>
<path d="M7898 4569 c-10 -5 -18 -15 -18 -22 0 -7 4 -6 10 3 9 13 11 13 20 0
7 -12 9 -10 7 8 0 12 -1 22 -2 22 0 0 -8 -5 -17 -11z"/>
<path d="M8088 4573 c7 -3 16 -2 19 1 4 3 -2 6 -13 5 -11 0 -14 -3 -6 -6z"/>
<path d="M8585 4570 c3 -6 -4 -10 -16 -10 -12 0 -20 -3 -16 -6 9 -9 57 5 57
16 0 6 -7 10 -16 10 -8 0 -12 -4 -9 -10z"/>
<path d="M8470 4550 c0 -15 14 -19 28 -7 13 10 15 9 8 -7 -7 -19 -6 -19 14 -1
11 10 20 19 20 20 0 2 -16 2 -35 2 -19 -1 -35 -4 -35 -7z"/>
<path d="M8616 4551 c-19 -7 -19 -8 0 -13 13 -3 21 0 21 8 0 8 -1 14 -1 13 -1
0 -10 -4 -20 -8z"/>
<path d="M8723 4544 c0 -6 9 -9 19 -6 10 2 18 8 18 13 0 4 -8 7 -18 6 -10 0
-19 -6 -19 -13z"/>
<path d="M8810 4556 c0 -2 7 -7 16 -10 8 -3 12 -2 9 4 -6 10 -25 14 -25 6z"/>
<path d="M8850 4556 c0 -2 7 -7 16 -10 8 -3 12 -2 9 4 -6 10 -25 14 -25 6z"/>
<path d="M8172 4519 c8 -5 35 -5 59 0 l44 8 -59 1 c-39 0 -54 -3 -44 -9z"/>
<path d="M8340 4510 c-8 -5 -10 -10 -5 -10 6 0 17 5 25 10 8 5 11 10 5 10 -5
0 -17 -5 -25 -10z"/>
<path d="M7842 4500 c7 -21 34 -24 41 -5 4 8 2 15 -3 15 -6 0 -10 -5 -10 -11
0 -8 -6 -7 -17 2 -14 12 -16 12 -11 -1z"/>
<path d="M8210 4500 c-8 -5 -10 -10 -5 -10 6 0 17 5 25 10 8 5 11 10 5 10 -5
0 -17 -5 -25 -10z"/>
<path d="M8426 4495 c4 -8 8 -15 10 -15 2 0 4 7 4 15 0 8 -4 15 -10 15 -5 0
-7 -7 -4 -15z"/>
<path d="M8890 4503 c0 -4 5 -15 10 -23 8 -13 10 -13 10 2 0 9 -4 20 -10 23
-5 3 -10 3 -10 -2z"/>
<path d="M8258 4493 c7 -3 16 -2 19 1 4 3 -2 6 -13 5 -11 0 -14 -3 -6 -6z"/>
<path d="M8931 4474 c0 -11 3 -14 6 -6 3 7 2 16 -1 19 -3 4 -6 -2 -5 -13z"/>
<path d="M7971 4439 c-6 -18 -9 -34 -7 -36 2 -2 9 10 16 27 7 17 10 33 8 36
-3 3 -11 -9 -17 -27z"/>
<path d="M8005 4460 c-3 -6 1 -7 9 -4 18 7 21 14 7 14 -6 0 -13 -4 -16 -10z"/>
<path d="M8140 4449 c0 -5 5 -7 10 -4 6 3 10 8 10 11 0 2 -4 4 -10 4 -5 0 -10
-5 -10 -11z"/>
<path d="M8588 4453 c6 -2 12 -11 12 -19 0 -9 5 -12 10 -9 13 8 -6 35 -24 34
-7 0 -6 -2 2 -6z"/>
<path d="M8908 4420 c-3 -17 -1 -33 4 -36 4 -3 8 -13 8 -22 0 -12 -3 -13 -11
-5 -11 11 -27 1 -73 -43 -6 -5 -19 -13 -29 -17 -27 -10 -15 -32 19 -33 45 -2
51 -5 24 -14 -24 -8 -24 -8 -2 -9 12 -1 25 6 28 14 4 10 20 15 44 15 l37 0 7
-70 c4 -38 4 -75 0 -82 -4 -7 -3 -8 4 -4 8 5 12 46 12 124 0 129 -6 162 -26
162 -8 0 -14 5 -14 11 0 5 5 7 10 4 6 -3 10 1 10 10 0 21 -19 10 -31 -19 -8
-18 -9 -16 -6 12 4 41 -9 42 -15 2z m43 -85 l0 -20 10 20 9 20 -3 -20 c-2 -17
-10 -20 -50 -20 -32 0 -46 -4 -43 -12 3 -6 -3 -13 -12 -16 -9 -3 -25 -8 -34
-12 -11 -4 -18 -3 -18 4 0 6 6 11 14 11 7 0 21 11 30 25 9 14 21 23 26 20 4
-3 10 -2 13 2 2 5 3 3 1 -3 -1 -6 9 -11 22 -11 23 0 24 3 19 31 -5 23 -4 27 4
16 6 -8 11 -24 12 -35z"/>
<path d="M8572 4406 c-1 -19 3 -38 9 -42 9 -5 10 -1 7 14 -7 26 9 40 18 17 6
-13 8 -14 15 -3 13 20 11 31 -6 24 -9 -3 -18 1 -21 9 -10 25 -20 17 -22 -19z"/>
<path d="M8790 4412 c0 -21 2 -22 15 -12 8 7 15 18 15 25 0 6 -7 12 -15 12 -9
0 -15 -10 -15 -25z"/>
<path d="M7924 4376 c-1 -23 1 -33 5 -23 5 15 9 12 19 -16 7 -18 23 -40 37
-47 13 -7 22 -16 20 -21 -3 -4 5 -5 17 -1 16 4 19 2 13 -8 -5 -9 -4 -11 4 -6
14 9 5 26 -15 26 -8 0 -14 5 -14 10 0 6 -7 10 -15 10 -8 0 -15 9 -15 21 0 12
-4 17 -11 13 -8 -4 -9 4 -5 27 4 22 3 27 -2 15 -6 -14 -11 -16 -16 -8 -4 7 -5
15 -3 20 3 4 0 12 -7 18 -8 8 -12 0 -12 -30z"/>
<path d="M8551 4384 c0 -16 4 -38 9 -49 6 -13 7 -5 3 25 -7 53 -13 66 -12 24z"/>
<path d="M7840 4389 c0 -5 5 -7 10 -4 6 3 10 8 10 11 0 2 -4 4 -10 4 -5 0 -10
-5 -10 -11z"/>
<path d="M8057 4394 c-13 -14 -7 -32 17 -48 14 -9 27 -12 30 -8 6 10 -39 64
-47 56z"/>
<path d="M7860 4360 c0 -5 5 -10 10 -10 6 0 10 5 10 10 0 6 -4 10 -10 10 -5 0
-10 -4 -10 -10z"/>
<path d="M8631 4354 c0 -11 3 -14 6 -6 3 7 2 16 -1 19 -3 4 -6 -2 -5 -13z"/>
<path d="M8451 4334 c0 -11 3 -14 6 -6 3 7 2 16 -1 19 -3 4 -6 -2 -5 -13z"/>
<path d="M7840 4330 c0 -5 5 -10 11 -10 5 0 7 5 4 10 -3 6 -8 10 -11 10 -2 0
-4 -4 -4 -10z"/>
<path d="M7888 4323 c7 -3 16 -2 19 1 4 3 -2 6 -13 5 -11 0 -14 -3 -6 -6z"/>
<path d="M8305 4280 c-4 -12 -5 -24 -2 -27 3 -2 8 5 12 17 4 12 5 24 2 27 -3
2 -8 -5 -12 -17z"/>
<path d="M8467 4248 c4 -66 -14 -90 -69 -86 -24 1 -38 7 -38 16 0 7 -5 10 -12
6 -6 -4 -18 2 -26 12 -14 18 -14 18 -8 -2 3 -11 0 -29 -9 -40 -20 -27 -19 -39
9 -54 21 -11 28 -10 49 6 18 15 36 18 70 16 40 -3 47 -7 48 -26 1 -11 2 -25 4
-31 1 -5 3 -14 3 -19 1 -5 10 1 21 12 10 12 26 22 35 22 9 0 19 7 22 15 4 8
10 15 15 15 4 0 6 -6 3 -13 -4 -10 3 -12 27 -9 24 4 30 2 24 -8 -5 -8 -4 -11
3 -7 5 4 9 18 7 32 -1 14 2 25 6 25 5 0 9 -11 9 -25 0 -14 5 -25 11 -25 6 0 9
6 6 14 -3 8 1 20 9 27 13 11 14 8 10 -17 l-6 -29 14 30 c9 17 15 24 16 18 0
-7 10 -13 23 -14 21 0 21 -1 2 -9 -11 -5 -15 -9 -8 -9 6 -1 20 -4 30 -7 14 -5
15 -4 4 4 -10 7 -5 10 21 9 38 -1 68 20 68 47 0 9 5 16 10 16 6 0 10 9 10 21
0 16 -4 19 -19 14 -15 -5 -24 1 -36 24 -23 46 -32 38 -30 -29 1 -32 -2 -57 -6
-54 -4 2 -10 0 -13 -5 -4 -5 2 -12 11 -14 10 -2 3 -3 -16 -1 -31 3 -71 28 -69
43 0 3 0 15 -1 26 -1 19 -2 18 -16 -2 -9 -13 -33 -28 -55 -34 -35 -11 -43 -9
-84 15 -25 15 -46 23 -46 19 0 -14 -20 22 -20 36 0 11 4 9 15 -5 14 -17 14
-16 0 13 -8 18 -15 39 -15 47 0 8 -4 17 -9 20 -4 3 -7 -18 -4 -46z m57 -77
c12 -1 -24 -41 -37 -41 -5 0 -7 9 -4 21 4 15 2 19 -9 15 -8 -3 -12 -1 -9 4 3
5 16 8 28 6 12 -3 26 -5 31 -5z m-199 -31 c-10 -11 -20 -18 -23 -16 -5 6 21
35 32 36 5 0 1 -9 -9 -20z"/>
<path d="M7951 4251 c-8 -5 -9 -11 -3 -15 5 -3 12 1 16 9 6 17 6 18 -13 6z"/>
<path d="M8060 4257 c0 -2 9 -14 20 -27 13 -15 20 -18 20 -9 0 8 -9 20 -20 27
-11 7 -20 11 -20 9z"/>
<path d="M8186 4243 c4 -10 8 -33 8 -51 0 -20 3 -28 8 -20 14 23 9 75 -8 82
-13 5 -14 2 -8 -11z"/>
<path d="M7825 4183 c0 -56 0 -57 9 -20 5 20 15 37 23 37 7 0 13 5 13 10 0 6
-7 10 -15 10 -8 0 -15 5 -15 10 0 6 -4 10 -8 10 -4 0 -8 -26 -7 -57z"/>
<path d="M7905 4230 c3 -5 14 -10 23 -10 15 0 15 2 2 10 -20 13 -33 13 -25 0z"/>
<path d="M7970 4227 c0 -3 15 -10 32 -16 18 -6 28 -7 23 -2 -12 10 -55 25 -55
18z"/>
<path d="M7930 4199 c0 -5 5 -7 10 -4 6 3 10 8 10 11 0 2 -4 4 -10 4 -5 0 -10
-5 -10 -11z"/>
<path d="M7945 4179 c-4 -6 -5 -12 -2 -15 2 -3 7 2 10 11 7 17 1 20 -8 4z"/>
<path d="M8185 4129 c5 -14 4 -19 -4 -15 -7 4 -9 1 -5 -7 3 -8 0 -18 -7 -23
-8 -5 -10 -3 -4 7 5 8 -3 3 -18 -11 -25 -24 -25 -25 -6 -35 11 -6 17 -14 14
-17 -3 -3 1 -8 10 -12 11 -4 14 -2 9 7 -5 8 -2 7 9 -2 9 -7 26 -11 37 -8 11 3
23 1 26 -4 7 -12 64 -12 64 1 0 14 -39 32 -56 26 -12 -5 -15 1 -12 21 3 23 8
28 35 29 18 1 30 -2 28 -6 -3 -5 -1 -11 5 -15 5 -3 10 -19 10 -36 0 -19 5 -29
15 -29 11 0 15 11 15 40 0 27 -4 40 -14 40 -7 0 -25 11 -40 25 -15 14 -31 23
-36 20 -4 -3 -13 2 -20 10 -7 8 -23 15 -37 15 -20 0 -23 -4 -18 -21z m49 -7
c3 7 3 2 -1 -12 -5 -22 -4 -23 10 -12 12 11 20 11 34 2 17 -11 17 -11 0 -6
-11 3 -24 3 -30 -1 -21 -13 -39 -12 -33 2 3 8 1 17 -4 20 -6 4 -10 12 -10 18
0 7 7 4 14 -6 11 -14 15 -15 20 -5z m-37 -34 c-3 -8 -6 -5 -6 6 -1 11 2 17 5
13 3 -3 4 -12 1 -19z"/>
<path d="M7933 4101 c-3 -13 -11 -20 -19 -17 -10 4 -14 -4 -14 -29 0 -19 5
-35 10 -35 6 0 10 12 10 26 0 17 4 23 13 18 6 -4 9 -4 5 1 -4 4 -3 16 3 27 6
11 8 23 4 26 -3 3 -8 -4 -12 -17z"/>
<path d="M8900 4085 c0 -8 5 -15 10 -15 6 0 10 7 10 15 0 8 -4 15 -10 15 -5 0
-10 -7 -10 -15z"/>
<path d="M7832 4055 c0 -16 2 -22 5 -12 2 9 2 23 0 30 -3 6 -5 -1 -5 -18z"/>
<path d="M7970 4061 c0 -10 39 -31 44 -23 2 4 -7 12 -20 19 -13 6 -24 8 -24 4z"/>
<path d="M8560 4040 c0 -23 25 -27 33 -6 7 16 -1 26 -20 26 -7 0 -13 -9 -13
-20z"/>
<path d="M8646 4052 c-3 -6 -1 -14 5 -17 15 -10 25 3 12 16 -7 7 -13 7 -17 1z"/>
<path d="M7970 4031 c0 -5 7 -12 16 -15 24 -9 27 -7 10 9 -17 17 -26 19 -26 6z"/>
<path d="M8025 4030 c-3 -6 0 -10 7 -10 11 0 10 -2 0 -9 -9 -5 -4 -8 16 -7 17
1 28 4 26 8 -3 4 3 11 12 16 12 6 7 9 -20 10 -19 1 -38 -3 -41 -8z"/>
<path d="M8118 4033 c7 -3 16 -2 19 1 4 3 -2 6 -13 5 -11 0 -14 -3 -6 -6z"/>
<path d="M8435 4023 c-11 -3 -28 -11 -39 -19 -16 -11 -13 -12 30 -10 37 2 50
7 52 19 3 17 -6 19 -43 10z"/>
<path d="M8606 4011 c-3 -5 -32 -12 -63 -15 -32 -4 -85 -11 -118 -16 l-60 -8
65 4 c36 2 86 7 113 10 27 4 47 2 47 -4 0 -5 13 -9 29 -8 16 1 27 4 25 8 -3 4
13 9 33 11 l38 4 -37 1 c-21 1 -38 7 -38 12 0 12 -27 13 -34 1z"/>
<path d="M7898 3993 c7 -3 16 -2 19 1 4 3 -2 6 -13 5 -11 0 -14 -3 -6 -6z"/>
<path d="M8173 3993 c9 -2 25 -2 35 0 9 3 1 5 -18 5 -19 0 -27 -2 -17 -5z"/>
<path d="M8720 3992 c0 -4 17 -6 38 -4 64 6 69 10 15 11 -29 0 -53 -3 -53 -7z"/>
<path d="M8328 3983 c7 -3 16 -2 19 1 4 3 -2 6 -13 5 -11 0 -14 -3 -6 -6z"/>
<path d="M7860 3960 c22 -22 39 -27 21 -7 -6 8 -8 17 -4 20 3 4 -3 7 -15 7
l-22 0 20 -20z"/>
<path d="M7905 3971 c-3 -5 -1 -12 5 -16 5 -3 10 1 10 9 0 18 -6 21 -15 7z"/>
<path d="M8168 3973 c6 -2 18 -2 25 0 6 3 1 5 -13 5 -14 0 -19 -2 -12 -5z"/>
<path d="M8545 3970 c27 -12 43 -12 25 0 -8 5 -22 9 -30 9 -10 0 -8 -3 5 -9z"/>
<path d="M8248 3963 c6 -2 18 -2 25 0 6 3 1 5 -13 5 -14 0 -19 -2 -12 -5z"/>
<path d="M8328 3963 c7 -3 16 -2 19 1 4 3 -2 6 -13 5 -11 0 -14 -3 -6 -6z"/>
<path d="M8413 3953 c9 -2 23 -2 30 0 6 3 -1 5 -18 5 -16 0 -22 -2 -12 -5z"/>
<path d="M8175 3940 c-14 -6 -2 -9 40 -9 42 0 54 3 40 9 -11 5 -29 9 -40 9
-11 0 -29 -4 -40 -9z"/>
<path d="M8288 3943 c6 -2 18 -2 25 0 6 3 1 5 -13 5 -14 0 -19 -2 -12 -5z"/>
<path d="M3847 4965 c-84 -29 -108 -84 -67 -151 20 -32 90 -74 123 -74 29 0
23 -72 -9 -103 -36 -36 -76 -43 -122 -20 -31 15 -39 26 -48 63 -9 38 -14 45
-35 45 -20 0 -24 -5 -27 -35 -6 -72 69 -140 156 -140 46 0 119 32 129 56 4 12
8 11 21 -7 49 -70 206 -61 255 14 37 57 33 117 -9 117 -20 0 -24 -5 -24 -33 0
-44 -23 -74 -68 -88 -54 -16 -107 8 -127 55 -22 52 -19 63 23 76 82 27 132 77
132 135 0 41 -18 65 -63 86 -51 23 -182 25 -240 4z m123 -26 c51 0 69 -3 55
-9 -32 -14 -117 -10 -150 6 -26 12 -27 14 -5 9 14 -2 59 -5 100 -6z"/>
<path d="M5405 3734 c-256 -167 -589 -277 -995 -330 -171 -22 -621 -30 -803
-15 -461 40 -866 160 -1144 341 l-62 40 -24 -33 c-40 -52 -112 -168 -140 -224
-15 -28 -59 -102 -98 -165 -173 -274 -334 -589 -383 -748 -37 -123 -59 -279
-52 -374 10 -142 83 -255 201 -311 51 -24 65 -26 155 -23 54 2 96 6 94 10 -3
4 15 17 38 29 62 32 105 66 128 104 20 33 20 36 5 92 -21 74 -30 242 -20 369
7 97 8 100 44 134 105 100 316 235 506 325 234 110 448 179 690 222 134 24
175 27 385 27 259 0 379 -15 610 -75 310 -82 677 -265 925 -463 79 -64 95 -83
95 -117 0 -15 5 -31 11 -34 7 -5 8 15 3 65 l-7 73 48 -29 c26 -15 75 -35 109
-44 69 -19 63 -2 58 -159 l-2 -70 -52 -5 c-29 -4 -75 -8 -103 -10 -27 -3 -84
-8 -125 -12 l-75 -7 140 -31 c115 -26 161 -31 258 -30 l117 1 0 -63 c0 -44 5
-67 16 -78 18 -19 65 -21 82 -4 19 19 15 92 -7 112 -17 16 -18 15 -13 -32 3
-32 0 -52 -8 -57 -20 -12 -30 8 -44 91 -54 305 -57 426 -15 524 23 53 23 53
31 24 4 -16 4 -42 -1 -59 -13 -44 -21 -122 -15 -140 16 -41 244 11 336 76 16
12 31 19 34 17 2 -3 5 -65 6 -139 l3 -134 -179 -14 -178 -15 6 -45 c3 -25 10
-48 14 -52 4 -3 104 6 222 22 118 15 238 29 265 30 l50 3 1 -47 c2 -55 24 -87
60 -87 41 0 59 74 29 114 -14 18 -15 16 -15 -33 0 -37 -4 -51 -12 -49 -18 6
-35 74 -52 209 -15 119 -42 202 -93 282 -23 37 -25 44 -13 72 52 129 51 199
-4 311 -64 128 -157 196 -416 304 -239 100 -349 170 -484 310 -37 38 -69 70
-69 70 -1 0 -33 -21 -72 -46z m1061 -1064 c30 -58 74 -210 74 -254 0 -13 -12
-16 -70 -16 l-70 0 0 68 c0 37 -5 107 -11 155 -10 82 -9 90 8 102 10 8 22 13
27 12 5 -2 24 -32 42 -67z m-590 -110 c27 0 30 -8 39 -121 l6 -77 -38 -5 c-21
-2 -42 -1 -46 3 -5 4 -5 58 -1 121 5 63 10 106 12 97 2 -11 13 -18 28 -18z
m-53 -5 c-3 -9 -8 -14 -10 -11 -3 3 -2 9 2 15 9 16 15 13 8 -4z m-6 -142 c-3
-10 -5 -2 -5 17 0 19 2 27 5 18 2 -10 2 -26 0 -35z"/>
<path d="M6661 3460 c1 -28 15 -65 21 -55 3 6 -1 24 -8 40 -7 17 -13 23 -13
15z"/>
<path d="M6710 3420 c0 -7 24 -20 36 -20 13 0 1 19 -16 23 -11 3 -20 2 -20 -3z"/>
<path d="M6690 3379 c0 -5 5 -7 10 -4 6 3 10 8 10 11 0 2 -4 4 -10 4 -5 0 -10
-5 -10 -11z"/>
<path d="M6755 3380 c3 -5 8 -10 11 -10 2 0 4 5 4 10 0 6 -5 10 -11 10 -5 0
-7 -4 -4 -10z"/>
<path d="M6609 2405 c-3 -2 -3 -19 -1 -37 l4 -33 79 14 c61 12 79 19 77 30 -4
21 -142 43 -159 26z"/>
<path d="M978 2289 c-6 -19 -89 -28 -265 -29 -172 0 -173 0 -174 -22 -3 -51 3
-143 10 -146 15 -5 -6 -158 -28 -204 -13 -26 -21 -53 -18 -60 3 -8 6 -6 6 5 1
10 6 15 11 12 6 -3 10 3 10 14 0 11 5 23 11 27 8 5 10 -51 8 -200 l-4 -206
240 0 240 0 -3 297 c-2 187 -7 300 -14 304 -5 4 -3 9 6 12 13 5 16 23 16 87 0
45 -5 90 -10 101 -12 21 -36 26 -42 8z"/>
<path d="M5397 2293 c-3 -5 -8 -37 -12 -73 -3 -36 -10 -90 -15 -120 -5 -30
-12 -81 -15 -113 -7 -66 -13 -73 -125 -151 -281 -196 -608 -317 -976 -361 -71
-8 -134 -15 -140 -15 -6 0 -10 -10 -8 -22 2 -13 8 -93 14 -178 12 -184 42
-370 67 -413 44 -75 173 -102 457 -95 192 5 295 22 354 58 31 19 63 76 135
240 29 66 94 295 132 467 21 95 41 171 43 168 2 -2 -3 -48 -12 -102 -9 -54
-23 -156 -30 -228 -14 -132 -37 -306 -60 -449 -10 -63 -10 -80 0 -91 8 -7 57
-21 111 -30 54 -9 181 -32 283 -51 102 -19 198 -34 214 -34 27 0 28 2 22 33
-7 32 -20 137 -56 457 -11 96 -31 265 -45 375 -75 627 -78 667 -66 675 9 5 3
9 -15 13 -16 2 -73 14 -128 26 -108 23 -123 25 -129 14z"/>
<path d="M6511 2144 c-41 -34 -39 -51 7 -63 20 -6 53 -22 73 -35 52 -35 71
-36 83 -3 14 38 -2 77 -43 104 -44 30 -82 29 -120 -3z"/>
<path d="M9591 2134 c0 -11 3 -14 6 -6 3 7 2 16 -1 19 -3 4 -6 -2 -5 -13z"/>
<path d="M2364 2029 c212 -664 361 -1044 463 -1178 55 -72 193 -101 478 -101
275 1 388 27 425 100 10 20 26 86 35 146 15 100 46 455 40 462 -1 1 -53 7
-116 13 -317 28 -589 103 -854 236 -143 71 -319 189 -406 271 -38 36 -67 59
-65 51z"/>
<path d="M6015 1979 c-31 -27 -35 -37 -35 -79 0 -38 5 -53 26 -74 15 -14 31
-26 35 -26 5 0 21 26 34 57 14 31 37 72 50 89 29 38 31 50 9 58 -39 15 -84 6
-119 -25z"/>
<path d="M9591 1954 c0 -11 3 -14 6 -6 3 7 2 16 -1 19 -3 4 -6 -2 -5 -13z"/>
<path d="M6500 1937 c-19 -9 -26 -22 -28 -51 -5 -60 5 -84 50 -116 54 -40 122
-42 162 -5 15 14 26 35 26 49 0 33 -55 95 -105 117 -47 22 -71 23 -105 6z m36
-124 c-11 -12 -27 13 -20 32 7 17 8 17 17 -3 6 -12 7 -25 3 -29z"/>
<path d="M9581 1863 c1 -44 3 -52 9 -33 12 36 12 90 0 90 -6 0 -10 -25 -9 -57z"/>
<path d="M2138 1873 c7 -3 16 -2 19 1 4 3 -2 6 -13 5 -11 0 -14 -3 -6 -6z"/>
<path d="M6195 1823 c-56 -57 -81 -152 -51 -197 22 -34 77 -44 113 -21 69 45
95 107 74 176 -21 70 -87 91 -136 42z m93 -55 c18 -18 15 -28 -8 -28 -13 0
-20 7 -20 20 0 23 10 26 28 8z"/>
<path d="M481 1804 c0 -11 3 -14 6 -6 3 7 2 16 -1 19 -3 4 -6 -2 -5 -13z"/>
<path d="M6442 1763 c4 -21 -31 -31 -43 -12 -4 7 -11 10 -15 7 -13 -13 5 -36
36 -46 28 -10 32 -9 42 13 12 26 5 55 -12 55 -6 0 -10 -8 -8 -17z"/>
<path d="M6440 1688 c-52 -26 -54 -27 -23 -28 20 0 43 9 60 24 40 34 27 36
-37 4z"/>
<path d="M9628 1704 c-5 -30 4 -104 13 -104 5 0 10 18 11 40 1 22 2 48 2 57 1
22 -21 29 -26 7z"/>
<path d="M9680 1691 c0 -10 19 -25 25 -20 1 2 -3 10 -11 17 -8 7 -14 8 -14 3z"/>
<path d="M9731 1664 c0 -11 3 -14 6 -6 3 7 2 16 -1 19 -3 4 -6 -2 -5 -13z"/>
<path d="M9815 1672 c-30 -6 -54 -30 -96 -97 -22 -33 -39 -53 -39 -45 0 8 -9
21 -20 28 -17 10 -25 9 -45 -4 -14 -9 -25 -20 -25 -24 0 -13 37 -22 59 -15 11
3 22 1 26 -5 4 -6 -13 -10 -47 -10 -29 0 -48 -4 -41 -8 7 -4 78 -9 158 -11
129 -2 144 -1 139 13 -3 9 -1 23 5 30 8 10 9 16 1 21 -5 3 -10 -1 -10 -9 0 -9
-9 -16 -20 -16 -13 0 -20 7 -20 19 0 10 -7 22 -15 25 -14 5 -12 12 9 50 27 48
20 67 -19 58z m-5 -116 c0 -3 -4 -8 -10 -11 -5 -3 -10 -1 -10 4 0 6 5 11 10
11 6 0 10 -2 10 -4z m-35 -36 c3 -5 1 -10 -4 -10 -6 0 -11 5 -11 10 0 6 2 10
4 10 3 0 8 -4 11 -10z m55 6 c0 -2 -6 -9 -14 -15 -11 -9 -16 -9 -22 0 -4 7 -3
9 4 5 6 -3 13 -2 17 4 6 10 15 14 15 6z"/>
<path d="M226 1632 c-3 -5 8 -36 25 -70 16 -34 29 -66 29 -72 0 -6 36 -10 93
-9 62 0 85 3 71 9 -25 10 -41 30 -25 30 18 0 12 24 -8 37 -18 11 -21 9 -31
-22 -7 -20 -18 -35 -27 -35 -9 0 -13 6 -10 14 7 17 -41 86 -75 110 -25 18 -35
20 -42 8z"/>
<path d="M1081 1622 c-1 -8 -6 -10 -13 -6 -10 5 -10 4 -1 -6 15 -16 28 -8 20
12 -4 11 -6 11 -6 0z"/>
<path d="M7040 1586 c0 -17 3 -48 6 -68 l7 -38 222 0 222 0 7 38 c3 20 6 52 6
70 l0 33 -235 -2 -235 -2 0 -31z"/>
<path d="M1170 1556 c0 -8 6 -18 13 -23 8 -5 2 -10 -18 -14 l-30 -7 35 -2 c29
-3 26 -4 -20 -10 l-55 -7 63 1 c34 1 62 -2 62 -6 0 -4 87 -8 193 -7 105 0 184
4 174 8 -10 4 -19 11 -20 16 -2 11 -28 8 -42 -6 -13 -12 -165 -12 -165 1 0 6
-10 10 -22 10 -13 0 -50 14 -83 30 -66 33 -85 37 -85 16z"/>
<path d="M60 1125 c0 -88 1 -95 20 -95 19 0 20 7 20 95 0 88 -1 95 -20 95 -19
0 -20 -7 -20 -95z"/>
<path d="M1651 1188 c1 -24 3 -27 6 -10 2 12 11 22 19 22 8 0 12 5 9 10 -14
23 -35 10 -34 -22z"/>
<path d="M9103 1170 c0 -30 2 -43 4 -27 2 15 2 39 0 55 -2 15 -4 2 -4 -28z"/>
<path d="M7681 1163 c1 -53 6 -49 11 10 2 20 0 37 -4 37 -4 0 -8 -21 -7 -47z"/>
<path d="M7707 1203 c-4 -3 -7 -41 -7 -84 0 -52 -4 -79 -12 -82 -7 -3 -3 -6 9
-6 21 -1 22 2 21 89 -1 50 -2 90 -3 90 -1 0 -5 -3 -8 -7z"/>
<path d="M9118 1120 c-2 -57 1 -89 7 -87 13 5 19 177 6 177 -5 0 -11 -41 -13
-90z"/>
<path d="M1654 1081 c1 -30 6 -46 16 -48 10 -3 11 -2 3 4 -6 4 -13 26 -16 48
-4 40 -4 40 -3 -4z"/>
</g>
</svg>
